<svg width="79" height="41" viewBox="0 0 79 41" fill="none" xmlns="http://www.w3.org/2000/svg">
<path d="M0 0L7.6 10.8H33.3L11.7 16.6L13.5 19L37 10.4L0 0Z" fill="#0047BB"/>
<path d="M44.6 23.1H38.8V39.7H44.6C47.3 39.7 49.1 38.9 50 37.3C50.5 36.5 50.8 35.6 51 34.6C51.2 33.6 51.3 32.4 51.3 31C51.3 28.2 50.8 26.2 49.9 24.9C48.9 23.8 47.2 23.1 44.6 23.1ZM48.4 33.7C48.3 34.4 48.1 35 47.9 35.6C47.4 36.8 46.3 37.4 44.7 37.4H41.6V25.5H44.7C46.3 25.5 47.3 25.9 47.8 26.8C48.3 27.7 48.6 29.1 48.6 31.1C48.5 32.1 48.5 33 48.4 33.7ZM67.2 29.1C68.6 28.2 70 27.6 71.3 27.4V30C69.9 30.3 68.7 30.6 67.7 31.1L67.2 31.3V39.8H64.6V27.6H67.2V29.1ZM58 27.3C56.5 27.3 54.9 27.5 53.1 27.9L53.2 29.8H54C55.6 29.7 56.8 29.6 57.9 29.6C58.4 29.6 58.9 29.7 59.1 30C59.4 30.3 59.5 30.7 59.5 31.4V32.3L56.4 32.6C55 32.7 54 33 53.4 33.6C52.7 34.2 52.4 35 52.4 36.3C52.4 38.9 53.6 40.2 56 40.2C57.2 40.2 58.4 40 59.5 39.5V40H62.1V31.6C62.1 30.2 61.8 29.2 61.1 28.6C60.6 27.6 59.5 27.3 58 27.3ZM59.6 37.3L59.2 37.4C58.3 37.7 57.4 37.8 56.6 37.8C55.6 37.8 55.1 37.2 55.1 36.1C55.1 35 55.7 34.4 56.8 34.3L59.6 34V37.3ZM79 39.7C77.9 39.9 77.1 40 76.5 40C75.1 40 74.2 39.7 73.7 39.1C73.2 38.5 72.9 37.3 72.9 35.5V24.1H75.5V27.6H78.8V29.9H75.5V35.2C75.5 36.2 75.6 36.8 75.7 37.2C75.8 37.5 76.2 37.7 76.8 37.7L78.8 37.6L79 39.7ZM34.2 23.1H37L32.4 39.7H28.1L23.5 23.1H26.3L30.1 37.3H30.3L34.2 23.1Z" fill="black"/>
</svg>
